<?xml version="1.0" encoding="UTF-8"?>
<svg id="Layer_2" data-name="Layer 2" xmlns="http://www.w3.org/2000/svg" viewBox="0 0 200.43 56.85">
  <defs>
    <style>
      .cls-1 {
        fill: #3e85f8;
      }

      .cls-2 {
        fill: #b3dcff;
      }
    </style>
  </defs>
  <g id="Layer_1-2" data-name="Layer 1">
    <g>
      <g>
        <path class="cls-2" d="M31.69,2.4v21.6c0,3.76-2.27,7.14-5.74,8.56-3.47,1.42-7.47.61-10.1-2.07-2.63,2.68-6.63,3.49-10.1,2.07C2.27,31.14,0,27.76,0,24V2.4h5.33v21.6c0,2.17,1.75,3.92,3.92,3.92s3.92-1.75,3.92-3.92V2.4h5.33v21.6c0,2.17,1.75,3.92,3.92,3.92s3.92-1.76,3.92-3.92V2.4h5.33Z"/>
        <path class="cls-2" d="M42.84,7.86v20.13h2.31v5.33h-9.96v-5.33h2.31V7.86h-2.31V2.52h2.31v-.06h5.33v.06h2.31v5.33h-2.31Z"/>
        <path class="cls-2" d="M65.63,2.39v5.33h-6.25v25.52h-5.33V7.72h-6.25V2.39h17.84Z"/>
        <path class="cls-2" d="M88.78,2.47v30.82h-5.33v-12.74h-9.86v12.78h-5.33V2.47h5.33v12.74h9.86V2.47h5.33Z"/>
        <path class="cls-2" d="M125.43,12.68v20.57h-5.33v-10.95h-9.82v10.98h-5.33V12.68c0-5.65,4.59-10.24,10.24-10.24,5.65,0,10.24,4.59,10.24,10.24ZM120.1,16.98v-4.3c0-2.71-2.2-4.91-4.91-4.91s-4.91,2.2-4.91,4.91v4.3h9.82Z"/>
        <path class="cls-2" d="M174.27,20.1c1.6,4.86,6.14,7.78,11.5,6.28,4.77-1.34,6.98-3.62,9.18-6.53l5.49,3.21c-2.89,4.37-6.47,7.99-12.93,9.8-8.96,2.51-17.66-1.7-20.54-11.98-2.51-8.96,2.02-17.67,11.19-20.24s17.34,2.82,20.11,12.73l-24.01,6.73ZM179.62,6.96c-3.96,1.11-6.67,4.16-6.53,7.77l16.15-4.52c-2.09-3.22-5.73-4.33-9.62-3.24Z"/>
        <path class="cls-2" d="M140.54,2.41h0s-.05,0-.07,0c-.02,0-.05,0-.07,0h0c-5.34.09-9.64,4.44-9.65,9.8v21.06h5.33V12.2c-.03-1.61.82-3.11,2.21-3.92.67-.39,1.42-.59,2.18-.6.75.01,1.5.21,2.18.6,1.39.81,2.24,2.31,2.21,3.92v21.06h5.33V12.2c0-5.36-4.31-9.7-9.65-9.79Z"/>
      </g>
      <g>
        <g>
          <path class="cls-1" d="M41.81,46.13l-1.01.77c-.56-.72-1.22-1.27-2-1.64-.78-.37-1.63-.56-2.56-.56-1.02,0-1.96.24-2.83.73-.87.49-1.54,1.15-2.02,1.97-.48.82-.72,1.75-.72,2.78,0,1.56.53,2.86,1.6,3.9,1.07,1.04,2.41,1.56,4.04,1.56,1.79,0,3.28-.7,4.49-2.1l1.01.76c-.64.81-1.43,1.44-2.38,1.88-.95.44-2.01.66-3.19.66-2.23,0-4-.74-5.29-2.23-1.08-1.26-1.62-2.77-1.62-4.55,0-1.87.65-3.44,1.97-4.72s2.95-1.91,4.93-1.91c1.19,0,2.27.24,3.23.71.96.47,1.75,1.13,2.36,1.98Z"/>
          <path class="cls-1" d="M53.32,43.76h2.54c1.42,0,2.38.06,2.88.17.76.17,1.37.55,1.85,1.12.47.57.71,1.27.71,2.11,0,.7-.16,1.31-.49,1.83-.33.53-.79.93-1.4,1.19s-1.45.41-2.52.41l4.59,5.93h-1.58l-4.59-5.93h-.72v5.93h-1.28v-12.77ZM54.6,45.01v4.34l2.2.02c.85,0,1.48-.08,1.89-.24.41-.16.73-.42.96-.78.23-.36.34-.75.34-1.19s-.12-.82-.35-1.17c-.23-.35-.54-.6-.91-.75-.38-.15-1-.23-1.88-.23h-2.25Z"/>
          <path class="cls-1" d="M72.93,43.76h7.32v1.25h-6.04v4h5.99v1.25h-5.99v5.02h5.99v1.25h-7.26v-12.77Z"/>
          <path class="cls-1" d="M96.55,43.76l5.95,12.77h-1.38l-2.01-4.2h-5.5l-1.99,4.2h-1.42l6.03-12.77h.31ZM96.39,46.47l-2.19,4.62h4.36l-2.18-4.62Z"/>
          <path class="cls-1" d="M112.11,45.01v-1.25h6.99v1.25h-2.85v11.52h-1.3v-11.52h-2.85Z"/>
          <path class="cls-1" d="M129.64,43.76h1.28v12.77h-1.28v-12.77Z"/>
          <path class="cls-1" d="M141.76,43.76h1.39l4.23,9.86,4.3-9.86h1.39l-5.55,12.77h-.28l-5.48-12.77Z"/>
          <path class="cls-1" d="M164.11,43.76h7.32v1.25h-6.04v4h5.99v1.25h-5.99v5.02h5.99v1.25h-7.26v-12.77Z"/>
        </g>
        <rect class="cls-1" y="51.01" width="14.65" height="1.21"/>
        <rect class="cls-1" x="185.78" y="51.01" width="14.65" height="1.21"/>
      </g>
    </g>
  </g>
</svg>